<?xml version="1.0" encoding="UTF-8"?>
<svg version="1.1" xmlns="http://www.w3.org/2000/svg" width="1024" height="1024">
<path d="M0 0 C337.92 0 675.84 0 1024 0 C1024 337.92 1024 675.84 1024 1024 C686.08 1024 348.16 1024 0 1024 C0 686.08 0 348.16 0 0 Z " fill="#FEFEFE" transform="translate(0,0)"/>
<path d="M0 0 C0.76006348 0.13486816 1.52012695 0.26973633 2.30322266 0.40869141 C35.41976566 6.31773499 67.49634931 16.89713837 98 31 C98.95068359 31.43425293 99.90136719 31.86850586 100.88085938 32.31591797 C120.85384801 41.46964702 139.47747813 52.15056622 157.75 64.3125 C158.39397736 64.74070038 159.03795471 65.16890076 159.70144653 65.6100769 C161.57000498 66.85615111 163.43465031 68.10776351 165.296875 69.36328125 C166.17973427 69.95746101 166.17973427 69.95746101 167.08042908 70.56364441 C171.29206464 73.43245803 175.22848459 76.53173072 179.04394531 79.90698242 C180.98460224 81.22847195 180.98460224 81.22847195 183.44580078 80.80932617 C186.01375342 79.99564208 188.35845219 79.04354897 190.7890625 77.8828125 C191.71549561 77.44678711 192.64192871 77.01076172 193.59643555 76.56152344 C195.09557495 75.85044434 195.09557495 75.85044434 196.625 75.125 C209.24668086 69.24554317 222.06919392 63.9813455 234.99188232 58.80523682 C241.91633069 56.02859637 248.83331221 53.23340154 255.75 50.4375 C256.54392151 50.11699677 257.33784302 49.79649353 258.15582275 49.46627808 C267.85390027 45.54839756 277.49410005 41.53889907 287.0625 37.3125 C311.62150378 26.52368612 311.62150378 26.52368612 324.3125 30.375 C345.30827612 38.90360864 357.06065902 59.7006177 365.51171875 79.55078125 C370.02060289 92.76102075 370.42589078 109.50565086 364.48828125 122.30078125 C354.23006494 140.90557776 336.43669271 146.48276792 317.72485352 154.49121094 C309.89266194 157.84902343 302.10167303 161.28699887 294.33984375 164.8046875 C293.43541534 165.21423676 292.53098694 165.62378601 291.59915161 166.04574585 C287.10964152 168.08039549 282.62346248 170.12208063 278.140625 172.17138672 C276.48835501 172.92171193 274.83601459 173.67188206 273.18359375 174.421875 C272.05267555 174.94284256 272.05267555 174.94284256 270.89891052 175.47433472 C267.27856563 177.11218308 263.97425329 178.44765442 260 179 C260.4846875 179.9286084 260.969375 180.8572168 261.46875 181.81396484 C263.26192333 185.25210186 265.04974252 188.69299876 266.8359375 192.13476562 C267.6105145 193.62543646 268.38655137 195.11534965 269.1640625 196.60449219 C270.2798703 198.74217499 271.39044004 200.88250656 272.5 203.0234375 C272.84998047 203.69120209 273.19996094 204.35896667 273.56054688 205.04696655 C276 209.77225659 276 209.77225659 276 212 C286.55066722 208.122723 296.76119322 203.62368719 307 199 C308.67382612 198.2475175 310.34781921 197.49540631 312.02197266 196.74365234 C317.0165137 194.4999004 322.0085606 192.25064189 327 190 C331.84159403 187.81710733 336.68362762 185.6352116 341.52734375 183.45703125 C343.32389916 182.64801158 345.11900314 181.83577121 346.9140625 181.0234375 C359.08295586 175.54455186 369.15374176 171.33293174 382.4609375 175.83203125 C401.11899237 184.41473649 412.94246494 203.42332394 420 222 C424.86034349 235.6970165 426.76318259 251.45574948 421.328125 265.25390625 C415.3916795 277.52838032 408.51958619 284.28067874 396.25 289.9375 C395.27699951 290.39495605 394.30399902 290.85241211 393.30151367 291.32373047 C381.0763781 297.00132855 368.64150804 302.21145919 356.23828125 307.484375 C340.30411959 314.25916403 324.61733325 321.52700004 309 329 C309.06058594 329.75168457 309.12117187 330.50336914 309.18359375 331.27783203 C311.30468536 358.26056471 312.13279882 385.05008591 309 412 C308.90348145 412.86898926 308.80696289 413.73797852 308.70751953 414.63330078 C304.03930477 455.77338062 292.79987739 495.63204549 275 533 C274.60554687 533.83273437 274.21109375 534.66546875 273.8046875 535.5234375 C265.85997023 552.18171565 256.488894 567.81763203 246 583 C245.25492188 584.0828125 244.50984375 585.165625 243.7421875 586.28125 C237.80434372 594.80418686 231.38404601 602.88676056 224.74609375 610.87304688 C223.50780223 612.38143553 222.28823774 613.90528621 221.08203125 615.43945312 C215.17086747 622.88293888 208.70104801 629.60642791 201.96240234 636.29833984 C200.12752731 638.12248747 198.30360668 639.95709873 196.48046875 641.79296875 C189.62568059 648.65545625 182.62227711 654.99000302 175 661 C173.97202991 661.86288809 172.94861679 662.73129381 171.93359375 663.609375 C153.17165055 679.69942958 132.19245003 693.01563255 110.44873047 704.68310547 C108.7436914 705.6000527 107.04246095 706.52410255 105.34423828 707.45361328 C66.10016965 728.91402768 23.07774733 740.5411188 -21 747 C-22.77576416 747.26949463 -22.77576416 747.26949463 -24.58740234 747.54443359 C-40.49635224 749.83828218 -56.44954611 750.21330953 -72.5 750.1875 C-73.32448639 750.18623108 -74.14897278 750.18496216 -74.9984436 750.18365479 C-156.226206 749.94728623 -235.63280302 723.19115714 -301 675 C-301.58185059 674.57122559 -302.16370117 674.14245117 -302.76318359 673.70068359 C-311.51614155 667.2037733 -319.83038883 660.21097009 -328 653 C-328.74644775 652.34330322 -329.49289551 651.68660645 -330.26196289 651.01000977 C-336.75086996 645.24259074 -342.9376849 639.21324939 -349.0625 633.0625 C-350.02001621 632.10855722 -350.97769785 631.15478047 -351.93554688 630.20117188 C-353.28422852 628.85055664 -353.28422852 628.85055664 -354.66015625 627.47265625 C-355.47105713 626.66062744 -356.28195801 625.84859863 -357.11743164 625.01196289 C-359 623 -359 623 -360 621 C-365.80508219 621.70135751 -369.86216926 624.94278671 -374.6484375 628.08984375 C-382.52460342 632.57870754 -391.0017525 633.24823866 -399.796875 631.41796875 C-416.88373673 626.01042147 -428.81831676 611.26857922 -436.99072266 596.00292969 C-445.28849991 579.53583617 -450.63407109 558.77143365 -445.875 540.5 C-442.75007235 531.86222829 -437.71239586 525.31486112 -429.4375 521.25 C-426 520 -426 520 -422 520 C-422.33 519.34 -422.66 518.68 -423 518 C-423.09656649 516.24558737 -423.13075487 514.48753577 -423.1328125 512.73046875 C-423.13410156 511.67666016 -423.13539063 510.62285156 -423.13671875 509.53710938 C-423.13285156 508.43173828 -423.12898438 507.32636719 -423.125 506.1875 C-423.12886719 505.09373047 -423.13273437 503.99996094 -423.13671875 502.87304688 C-423.13542969 501.81537109 -423.13414062 500.75769531 -423.1328125 499.66796875 C-423.13168457 498.70141357 -423.13055664 497.7348584 -423.12939453 496.73901367 C-423.0029012 494.06141241 -422.59788579 491.60914507 -422 489 C-429.18566277 491.06005349 -435.74708505 494.69536879 -442.4140625 498.01171875 C-453.22998095 503.29226532 -462.69131017 505.90814527 -474.4296875 502.03125 C-492.9631331 494.5953387 -503.95644756 478.51609568 -512 461 C-518.84604996 444.71155994 -523.43465868 424.91918319 -517.1875 407.76953125 C-512.30919525 397.26084977 -505.07014062 393.01873673 -494.75 388.3125 C-493.46703143 387.71283716 -492.18473161 387.11174164 -490.90307617 386.50927734 C-488.26399989 385.27260904 -485.62034473 384.04664595 -482.97216797 382.82958984 C-479.72078869 381.33502428 -476.47848917 379.82207913 -473.23983765 378.30015564 C-470.266535 376.90312419 -467.28965743 375.51379394 -464.3125 374.125 C-463.20293945 373.60719971 -462.09337891 373.08939941 -460.95019531 372.5559082 C-459.93151367 372.08628662 -458.91283203 371.61666504 -457.86328125 371.1328125 C-456.96907471 370.71918457 -456.07486816 370.30555664 -455.15356445 369.87939453 C-453 369 -453 369 -451 369 C-451.0314209 368.03235718 -451.0314209 368.03235718 -451.06347656 367.04516602 C-451.82214713 339.5961769 -448.80069827 312.62709734 -442 286 C-441.75942871 285.03819824 -441.51885742 284.07639648 -441.27099609 283.08544922 C-434.94499114 258.12722389 -425.83436848 233.99280006 -415.17333984 210.57714844 C-414.40910379 208.89856422 -413.6512784 207.21704178 -412.90087891 205.53222656 C-395.87178222 167.30427722 -370.13341011 133.94344714 -340.67138672 104.48608398 C-339.1282647 102.94076934 -337.59335694 101.38759554 -336.05859375 99.83398438 C-329.69747535 93.43691273 -323.07735107 87.60997657 -316 82 C-314.70602121 80.92752285 -313.41525897 79.85114349 -312.12890625 78.76953125 C-252.95268929 29.4982761 -177.62292761 0.25584506 -100.85229492 -4.81152344 C-98.74501343 -4.95077032 -96.63849075 -5.10161232 -94.5324707 -5.25878906 C-62.89764778 -7.5517333 -31.19199445 -5.78611846 0 0 Z " fill="#043046" transform="translate(581,85)"/>
<path d="M0 0 C6.1049447 4.77700782 11.79823631 9.99944245 17.375 15.375 C17.95217773 15.93026367 18.52935547 16.48552734 19.12402344 17.05761719 C26.74145615 24.42786441 33.93450009 31.93188784 40.375 40.375 C41.11878906 41.34824219 41.86257813 42.32148438 42.62890625 43.32421875 C52.02240818 55.91050309 50.77657972 65.7412639 49.125 80.9375 C48.96064453 82.6690332 48.96064453 82.6690332 48.79296875 84.43554688 C47.92341101 92.50412738 46.80348294 100.85860724 40.9375 106.875 C36.31112075 109.58312444 32.41664755 110.64697928 27.0625 111 C25.99386719 111.07476562 24.92523437 111.14953125 23.82421875 111.2265625 C23.01597656 111.27554688 22.20773437 111.32453125 21.375 111.375 C22.38783997 105.94249471 23.80368419 101.26453599 26 96.1875 C29.06083761 88.38965181 29.89614205 80.84633293 27.62890625 72.69140625 C24.28639959 65.03914741 18.15793296 59.2360338 12.375 53.375 C11.79943359 52.7857373 11.22386719 52.19647461 10.63085938 51.58935547 C-0.28533886 40.15799797 -0.28533886 40.15799797 -12.625 30.375 C-12.34351608 30.92908539 -12.06203217 31.48317078 -11.77201843 32.05404663 C-8.8258548 37.85741012 -5.89126918 43.66652355 -2.96313477 49.47900391 C-1.87100169 51.64323981 -0.77599222 53.80602682 0.32202148 55.96728516 C1.90599355 59.08633682 3.47931373 62.2105707 5.05078125 65.3359375 C5.53839432 66.29051849 6.02600739 67.24509949 6.52839661 68.22860718 C10.99755051 77.16398128 13.90783481 85.45118377 13.75 95.5 C13.76160156 96.24636719 13.77320313 96.99273437 13.78515625 97.76171875 C13.75216179 104.08565597 12.50834294 109.67276561 8.5 114.75 C3.01517456 118.94427828 -2.31353216 118.62171248 -8.9375 118.5 C-10.33452148 118.48646484 -10.33452148 118.48646484 -11.75976562 118.47265625 C-14.0484436 118.44918263 -16.33658672 118.41634729 -18.625 118.375 C-18.18027344 117.62476563 -17.73554688 116.87453125 -17.27734375 116.1015625 C-12.8194262 108.0542757 -12.8194262 108.0542757 -12.7890625 99.13671875 C-17.99504908 81.9375014 -28.58583814 63.55134155 -39.625 49.375 C-39.625 52.77347744 -38.54191375 56.02851937 -37.7265625 59.3125 C-37.53154144 60.10720703 -37.33652039 60.90191406 -37.1355896 61.72070312 C-36.50924285 64.27267814 -35.87995715 66.82391398 -35.25 69.375 C-25.89507045 107.26682257 -25.89507045 107.26682257 -33.625 121.375 C-36.03470181 124.693751 -38.85052495 126.78080643 -42.625 128.375 C-46.04958503 128.82004272 -49.48671198 128.75465301 -52.9375 128.75 C-53.91412598 128.75128906 -54.89075195 128.75257813 -55.89697266 128.75390625 C-64.32610127 128.63212603 -71.6749632 127.14884462 -79.625 124.375 C-78.25436545 121.63373089 -76.92920982 121.65474102 -74.0625 120.6875 C-68.09625418 118.40200842 -62.98726433 114.98056135 -59.4375 109.5625 C-57.12538252 103.33756832 -57.67563271 95.95104438 -59.93359375 89.82421875 C-62.29306782 84.77708245 -62.29306782 84.77708245 -65.625 80.375 C-66.13289063 81.2928125 -66.64078125 82.210625 -67.1640625 83.15625 C-79.52556824 105.29351328 -79.52556824 105.29351328 -91.625 109.125 C-103.33038095 112.24525968 -113.24953802 111.9608182 -124.75 108.375 C-125.70648438 108.08882813 -126.66296875 107.80265625 -127.6484375 107.5078125 C-129.97792777 106.80896542 -132.30290687 106.0979702 -134.625 105.375 C-134.15707031 106.02984375 -133.68914062 106.6846875 -133.20703125 107.359375 C-132.62308594 108.27203125 -132.03914062 109.1846875 -131.4375 110.125 C-130.54998047 111.44757813 -130.54998047 111.44757813 -129.64453125 112.796875 C-126.78990822 122.81539873 -134.19855469 135.32838154 -137.92108154 144.63742065 C-145.79354545 164.38854528 -153.67128905 184.30128252 -153.78271484 205.86303711 C-153.78779556 206.56531937 -153.79287628 207.26760162 -153.79811096 207.99116516 C-153.80873688 209.50463086 -153.81738692 211.01811151 -153.82423019 212.53159904 C-153.83619525 214.95453901 -153.85569877 217.37731433 -153.87734985 219.80018616 C-153.93831294 226.68598632 -153.99243313 233.57177289 -154.02636719 240.45776367 C-154.16663356 267.39052758 -154.3417135 293.73794903 -163.625 319.375 C-164.06585938 320.60089844 -164.50671875 321.82679688 -164.9609375 323.08984375 C-172.97433294 343.30861316 -186.85026901 361.57275343 -201.7578125 377.234375 C-203.98669834 379.78966672 -205.79326918 382.52564094 -207.625 385.375 C-185.64342043 379.36689415 -166.61736068 368.16924411 -152.62890625 349.74609375 C-148.66914339 345.06076031 -142.9055717 342.38008412 -137.625 339.375 C-136.65457764 338.8169165 -136.65457764 338.8169165 -135.66455078 338.24755859 C-112.54294512 325.07303103 -88.35824026 317.94114579 -61.6875 317.875 C-61.0055658 317.87041779 -60.32363159 317.86583557 -59.62103271 317.8611145 C-37.59436109 317.80232623 -17.83527705 323.8745279 1.375 334.375 C1.99874512 334.71515137 2.62249023 335.05530273 3.26513672 335.40576172 C42.1127515 356.91963415 68.30834598 388.9668341 90.40869141 426.62524414 C96.63536614 437.23386168 102.88404792 447.60084677 110.375 457.375 C111.17800065 458.44983612 111.98006482 459.52537244 112.78125 460.6015625 C140.14142142 497.06729465 173.50345685 523.45053001 219.375 531.375 C221.04122988 531.41315463 222.70905777 531.42413515 224.375 531.375 C223.65699219 530.93671875 222.93898438 530.4984375 222.19921875 530.046875 C219.28683898 528.26245302 216.38032637 526.46898546 213.47607422 524.67138672 C212.04232694 523.78674832 210.60635105 522.90571422 209.16845703 522.02783203 C194.20645442 512.88598143 179.9625287 503.01816591 167.16015625 490.984375 C165.45649598 489.30460463 165.45649598 489.30460463 163.375 488.375 C163.375 487.715 163.375 487.055 163.375 486.375 C162.78332031 486.10945313 162.19164062 485.84390625 161.58203125 485.5703125 C132.97460126 470.07673095 108.67983835 421.84440188 93.4375 394.0625 C85.99318094 380.50504275 77.0590012 368.56679594 66.375 357.375 C65.77945312 356.71628906 65.18390625 356.05757812 64.5703125 355.37890625 C58.17799287 348.56134647 49.76867083 341.57183541 41.375 337.375 C41.375 336.715 41.375 336.055 41.375 335.375 C43.84008455 333.56279675 46.29771164 331.88994142 48.875 330.25 C49.64674561 329.75717529 50.41849121 329.26435059 51.21362305 328.7565918 C87.09487241 306.21406961 136.80908329 289.93996482 179.3125 298.9375 C215.92468581 307.49314025 245.69040098 331.05939536 265.76611328 362.55761719 C279.375 384.68485758 279.375 384.68485758 279.375 390.375 C285.975 390.375 292.575 390.375 299.375 390.375 C290.10350962 366.23815553 280.477974 344.24896949 262.375 325.375 C261.25544922 324.16070312 261.25544922 324.16070312 260.11328125 322.921875 C250.84512963 313.17882636 239.6509944 305.61730535 228.375 298.375 C230.93996493 295.81003507 233.42158309 294.98273441 236.78515625 293.6015625 C238.16092936 293.02924867 239.53640265 292.45621372 240.91162109 291.88256836 C241.64660828 291.57737274 242.38159546 291.27217712 243.13885498 290.95773315 C262.17224708 283.02744792 280.65526303 274.10245743 299.12695312 264.95436096 C308.02409562 260.54959774 316.96967833 256.24746115 325.91943359 251.95092773 C330.36624695 249.81134604 334.80892087 247.66945621 339.20947266 245.43603516 C339.84983963 245.11178055 340.4902066 244.78752594 341.14997864 244.45344543 C342.95772525 243.53553199 344.76275304 242.61226986 346.56762695 241.6887207 C349.375 240.375 349.375 240.375 351.375 240.375 C352.62711038 242.87922076 352.51548208 244.60321704 352.53613281 247.40600586 C352.54574036 248.45988998 352.5553479 249.51377411 352.56524658 250.59959412 C352.56949646 251.7513765 352.57374634 252.90315887 352.578125 254.08984375 C352.58382507 255.28815323 352.58952515 256.48646271 352.59539795 257.72108459 C352.60487469 260.27929804 352.61139247 262.83752384 352.61523438 265.39575195 C352.62474453 269.21003728 352.65565526 273.02373658 352.6875 276.83789062 C352.89810316 325.66504178 343.69214859 376.20098349 322.375 420.375 C321.93140137 421.303125 321.48780273 422.23125 321.03076172 423.1875 C314.5293963 436.72338245 307.59552826 449.80389815 299.375 462.375 C298.86855957 463.15182129 298.36211914 463.92864258 297.84033203 464.72900391 C290.74823346 475.52759166 283.13672847 485.72426959 274.83691406 495.62060547 C273.47461225 497.25545864 272.13467928 498.90522454 270.8046875 500.56640625 C267.08647449 505.19841738 263.31971623 509.58119144 259.046875 513.70703125 C257.26674115 515.48300591 255.63565144 517.34048949 254 519.25 C247.65073293 526.57282135 240.79635098 533.02541922 233.23046875 539.078125 C230.39880344 541.35585305 227.63894651 543.70331553 224.875 546.0625 C206.61088118 561.25129804 186.74400157 574.08981016 166.1875 585.9375 C165.36330566 586.41396973 164.53911133 586.89043945 163.68994141 587.38134766 C147.83027059 596.375 147.83027059 596.375 143.375 596.375 C142.11328125 595.03662109 142.11328125 595.03662109 140.6875 593.1484375 C140.15898438 592.45403564 139.63046875 591.75963379 139.0859375 591.04418945 C138.52132813 590.28710693 137.95671875 589.53002441 137.375 588.75 C136.78976562 587.97164795 136.20453125 587.1932959 135.6015625 586.39135742 C134.40920147 584.80018677 133.22039139 583.20634896 132.03515625 581.60986328 C130.61631573 579.69985355 129.18503821 577.80017053 127.75 575.90234375 C103.6130423 543.23011318 88.15029927 504.54053557 72.375 467.375 C71.715 479.255 71.055 491.135 70.375 503.375 C58.42877907 509.34811047 58.42877907 509.34811047 52.3125 511.375 C51.56355469 511.62354736 50.81460937 511.87209473 50.04296875 512.12817383 C39.37947664 515.50243812 28.36260351 517.38729283 17.375 519.375 C15.77857454 519.67670633 14.18221364 519.97875465 12.5859375 520.28125 C-73.91937691 536.21593306 -162.49539143 510.12558419 -239.37646484 471.02050781 C-243.49528645 468.93416649 -247.63255148 466.88597421 -251.76953125 464.8359375 C-280.22506601 450.7148371 -280.22506601 450.7148371 -293.23071289 443.74682617 C-297.23802971 441.6054 -301.27571071 439.54748039 -305.35546875 437.546875 C-306.84046875 436.81694336 -306.84046875 436.81694336 -308.35546875 436.07226562 C-310.25681213 435.14168739 -312.16151671 434.21792896 -314.0703125 433.30273438 C-321.55690546 429.63730736 -328.94195561 425.49322747 -333.625 418.375 C-336.79588123 408.30824748 -333.84316539 396.88148935 -332.125 386.75 C-331.99250854 385.95787109 -331.86001709 385.16574219 -331.72351074 384.34960938 C-330.86637802 379.23373334 -329.98399958 374.12260519 -329.0871582 369.0135498 C-328.62608228 366.38117892 -328.1712608 363.74777726 -327.71679688 361.11425781 C-323.82363715 338.71904672 -319.02174142 317.57059565 -310.625 296.375 C-310.00987549 294.79380371 -310.00987549 294.79380371 -309.38232422 293.18066406 C-298.69367825 265.87985099 -285.05952559 240.68932191 -268.25537109 216.70947266 C-266.67343468 214.44435197 -265.11018525 212.16739099 -263.55078125 209.88671875 C-257.98020079 201.79279042 -252.09654828 194.20654235 -245.62109375 186.8203125 C-237.43515473 177.47028127 -229.97085773 167.59739541 -222.75976562 157.48486328 C-218.52274035 151.5607816 -214.12946197 145.77146365 -209.6875 140 C-197.73659102 124.39449221 -186.86945207 108.40165597 -176.75 91.55078125 C-171.00451072 81.99271999 -164.88323403 72.86520423 -157.625 64.375 C-156.84962891 63.45460937 -156.84962891 63.45460937 -156.05859375 62.515625 C-144.7089221 50.11347754 -126.56625196 42.58489505 -111.953125 34.828125 C-95.9870865 26.35079178 -80.1943647 17.70357354 -65.08447266 7.75 C-44.25001703 -5.96110704 -22.95991791 -16.07855923 0 0 Z " fill="#E5922F" transform="translate(514.625,183.625)"/>
<path d="M0 0 C0 0.99 0 1.98 0 3 C-11.98523263 8.85540397 -23.97459466 14.64958463 -36.25 19.875 C-45.01480904 23.61622562 -53.62133486 27.64016784 -62.1875 31.8125 C-75.24294278 38.17085663 -88.37820147 44.33820409 -101.56689453 50.41650391 C-105.01403625 52.00647412 -108.45849842 53.60212265 -111.90234375 55.19921875 C-121.74745925 59.76164117 -131.5994843 64.30880764 -141.5 68.75 C-142.2420166 69.08555908 -142.9840332 69.42111816 -143.74853516 69.7668457 C-148.7642467 72 -148.7642467 72 -151 72 C-151.09796875 70.88882813 -151.1959375 69.77765625 -151.296875 68.6328125 C-153.1437326 49.54360641 -160.22592965 39.41673039 -173.69433594 26.09985352 C-175.36972068 24.4427218 -177.036967 22.77773144 -178.703125 21.11132812 C-183.74826538 16.08318487 -188.83165628 11.14672019 -194.25146484 6.51879883 C-196.00793078 4.99311123 -197.68373948 3.41084435 -199.3515625 1.7890625 C-214.03670478 -12.46833568 -228.12310923 -21.71820036 -249.22436523 -21.46679688 C-256.71272594 -21.20454034 -263.08627276 -19.98621083 -270 -17 C-270.66580078 -16.71511719 -271.33160156 -16.43023437 -272.01757812 -16.13671875 C-284.77016783 -10.59806049 -296.79671483 -3.77077888 -308.82373047 3.17285156 C-312.16716623 5.09616234 -315.52154733 6.99959619 -318.87890625 8.8984375 C-361.6734632 33.13044078 -395.64427895 53.56045181 -421.57421875 96.22265625 C-426.60040575 104.46158198 -432.01544054 112.22225186 -437.87890625 119.88671875 C-441.0914195 124.0912577 -444.17341372 128.38301731 -447.25 132.6875 C-452.70541517 140.29782482 -458.35324777 147.74751433 -464.05322266 155.17578125 C-468.34169048 160.77973632 -472.5243532 166.44495699 -476.625 172.1875 C-481.5313163 179.05224854 -486.62747484 185.74138453 -491.83154297 192.38256836 C-497.67048612 199.8363824 -503.37833293 207.38113584 -509 215 C-509.45391113 215.61359375 -509.90782227 216.2271875 -510.37548828 216.859375 C-511.69557002 218.65074363 -513.00579371 220.44885757 -514.3125 222.25 C-514.73257324 222.82161865 -515.15264648 223.3932373 -515.58544922 223.98217773 C-518.19578401 227.61320032 -520.03335851 231.25473282 -521.875 235.3125 C-526.01473921 242.44257002 -532.08340083 244.28698124 -539.40625 247.22265625 C-548.24697302 250.81029882 -556.68395597 255.25177061 -565.1875 259.5625 C-567.61592431 260.7905325 -570.0449231 262.01739326 -572.47509766 263.24195862 C-573.95416709 263.9875674 -575.43215443 264.73532746 -576.90893555 265.48545837 C-581.88846479 268 -581.88846479 268 -583 268 C-581.08259179 218.14738655 -567.10723538 168.04421379 -546 123 C-545.38922607 121.69579102 -545.38922607 121.69579102 -544.76611328 120.36523438 C-535.9489076 101.7445271 -525.22921729 84.56133855 -513 68 C-512.55188965 67.3920459 -512.1037793 66.7840918 -511.64208984 66.15771484 C-504.15161879 56.09178727 -495.74693518 46.98055018 -487 38 C-486.19224121 37.17032715 -485.38448242 36.3406543 -484.55224609 35.48583984 C-475.40913028 26.13441305 -466.35067064 17.01236748 -456 9 C-454.14269596 7.42034809 -452.28872867 5.83676743 -450.4375 4.25 C-378.57644314 -55.55694409 -285.19352879 -77.98604535 0 0 Z " fill="#FEFEFE" transform="translate(736,176)"/>
<path d="M0 0 C2.66580346 1.15420501 5.26297188 2.36025509 7.875 3.625 C23.2498156 10.79423948 39.29916997 16.39199498 55.2109375 22.234375 C59.37949528 23.76681152 63.534491 25.33219734 67.6875 26.90625 C91.12896109 35.68711374 115.45544361 41.99405101 140.2421875 45.59423828 C142.06757046 45.86281003 143.89067071 46.1474291 145.7109375 46.44873047 C161.69322241 49.07754468 177.59231074 49.29001276 193.75 49.3125 C194.78404968 49.31608521 195.81809937 49.31967041 196.88348389 49.32336426 C216.34523589 49.35962959 235.55066575 48.07725166 254.75 44.8125 C256.00296875 44.60109375 257.2559375 44.3896875 258.546875 44.171875 C276.0741982 41.0798573 293.42702312 36.5387927 310 30 C310.47308594 30.969375 310.94617188 31.93875 311.43359375 32.9375 C321.39955582 53.21184438 332.96193581 71.89335368 346.3125 90.125 C346.87477295 90.89432861 347.4370459 91.66365723 348.01635742 92.45629883 C351.3669057 96.97709893 354.8887206 101.22872307 358.70385742 105.36669922 C360 107 360 107 360 109 C329.36980107 119.14419491 299.14776895 126.80509323 267 130 C265.6068457 130.14574463 265.6068457 130.14574463 264.18554688 130.29443359 C252.94390213 131.32633803 241.65428148 131.24374334 230.375 131.25 C228.73478378 131.25101212 228.73478378 131.25101212 227.06143188 131.25204468 C210.49348881 131.23581602 194.38227819 130.656727 178 128 C176.34460205 127.75056641 176.34460205 127.75056641 174.65576172 127.49609375 C113.39978624 118.19269711 52.85416166 92.71281528 5 53 C4.4544043 52.55060059 3.90880859 52.10120117 3.34667969 51.63818359 C-7.83049983 42.40898938 -18.44636795 32.62969226 -28.75 22.4375 C-29.46647705 21.73407471 -30.1829541 21.03064941 -30.92114258 20.3059082 C-31.58138428 19.64679443 -32.24162598 18.98768066 -32.921875 18.30859375 C-33.51581055 17.71876709 -34.10974609 17.12894043 -34.72167969 16.52124023 C-36 15 -36 15 -36 13 C-35.16227051 12.61142822 -34.32454102 12.22285645 -33.46142578 11.82250977 C-30.35649863 10.38215299 -27.25169406 8.94153261 -24.14697266 7.50073242 C-22.8026208 6.87692849 -21.45822002 6.25322999 -20.11376953 5.62963867 C-18.18248866 4.73383791 -16.25138345 3.83765944 -14.3203125 2.94140625 C-13.15773926 2.40201416 -11.99516602 1.86262207 -10.79736328 1.30688477 C-6.34712589 -0.77219716 -4.91726275 -1.15230519 0 0 Z " fill="#FDFEFE" transform="translate(278,680)"/>
<path d="M0 0 C3.64780039 3.37352968 5.99340918 6.40076124 8.11328125 10.88671875 C8.63857422 11.98951172 9.16386719 13.09230469 9.70507812 14.22851562 C10.50075195 15.94071289 10.50075195 15.94071289 11.3125 17.6875 C11.86228516 18.84056641 12.41207031 19.99363281 12.97851562 21.18164062 C17 29.69919449 17 29.69919449 17 32 C16.16267334 32.37584229 15.32534668 32.75168457 14.46264648 33.13891602 C-1.05340561 40.11591857 -16.52140933 47.16577673 -31.8125 54.625 C-42.56778826 59.87039864 -53.36684862 64.99990044 -64.23168945 70.01611328 C-72.77782268 73.96288391 -81.30144971 77.95490819 -89.81567383 81.9699707 C-104.865583 89.06682627 -119.93668599 96.11538126 -135.04168701 103.09442139 C-137.13660451 104.06316974 -139.23071628 105.03364468 -141.32470703 106.00439453 C-158.36133071 113.90019188 -175.42307094 121.70334109 -192.67651367 129.11499023 C-206.3909087 135.0082732 -220.01909353 141.09280545 -233.65052795 147.17498779 C-238.05312894 149.13776144 -242.46246432 151.08412591 -246.87890625 153.015625 C-274.60285824 165.16474943 -301.8209768 178.43508188 -329.03369141 191.6809082 C-336.84229334 195.48049727 -344.66502367 199.24544936 -352.55053711 202.88354492 C-355.48195126 204.12438315 -355.48195126 204.12438315 -358 206 C-359.72628546 206.12206441 -361.45718462 206.17979411 -363.1875 206.2109375 C-364.27039307 206.23704102 -365.35328613 206.26314453 -366.46899414 206.29003906 C-367.63422607 206.31807617 -368.79945801 206.34611328 -370 206.375 C-380.5909781 206.71768952 -390.69777048 207.49701146 -401 210 C-401.68288086 210.16483887 -402.36576172 210.32967773 -403.06933594 210.49951172 C-417.51417221 214.11239187 -430.75531054 220.31061241 -444 227 C-443.37650642 224.47878568 -442.75124639 221.95803069 -442.125 219.4375 C-441.95097656 218.73302734 -441.77695312 218.02855469 -441.59765625 217.30273438 C-441.2458444 215.88897195 -440.88808219 214.47667708 -440.52441406 213.06591797 C-440.02650721 211.10442458 -439.57062401 209.13240443 -439.1171875 207.16015625 C-437.61189216 202.90217047 -435.47985654 201.76260919 -431.546875 199.73583984 C-430.16242188 199.10476318 -430.16242188 199.10476318 -428.75 198.4609375 C-427.68499268 197.97157715 -426.61998535 197.4822168 -425.52270508 196.97802734 C-423.77896606 196.18452881 -423.77896606 196.18452881 -422 195.375 C-419.46101705 194.21098688 -416.92379109 193.04317064 -414.38671875 191.875 C-413.38145393 191.41279556 -413.38145393 191.41279556 -412.35588074 190.94125366 C-407.22725979 188.5785683 -402.1195882 186.17366372 -397.01953125 183.75 C-396.26476501 183.3913385 -395.50999878 183.032677 -394.73236084 182.66314697 C-393.19825374 181.93401915 -391.66415546 181.20487277 -390.13006592 180.47570801 C-378.48836717 174.94658328 -366.82213583 169.5157533 -355.00219727 164.37573242 C-325.17121812 151.38951984 -295.28629761 138.18645013 -266.4609375 123.07421875 C-265.82347595 122.74009979 -265.1860144 122.40598083 -264.52923584 122.06173706 C-263.88859192 121.72586578 -263.247948 121.38999451 -262.58789062 121.04394531 C-261.28782572 120.36250561 -259.98769552 119.68119045 -258.6875 119 C-258.0488501 118.66528687 -257.4102002 118.33057373 -256.75219727 117.98571777 C-242.95622889 110.77945352 -228.77482648 104.58979992 -214.46533203 98.48535156 C-192.65433541 89.13646446 -171.15861908 78.98472929 -149.8125 68.625 C-138.703383 63.2402846 -127.5007892 58.09171005 -116.25 53.01269531 C-108.42630795 49.47834739 -100.62126732 45.90784197 -92.83984375 42.28125 C-91.97628769 41.8788208 -91.11273163 41.4763916 -90.2230072 41.06176758 C-88.46641866 40.24302706 -86.70984216 39.42426069 -84.95327759 38.60546875 C-68.4689231 30.92459356 -51.89476893 23.52967525 -35.17822266 16.36962891 C-23.29258532 11.24761128 -11.49346537 5.956979 0 0 Z " fill="#FDFDFD" transform="translate(818,275)"/>
<path d="M0 0 C1.25211038 2.50422076 1.14048208 4.22821704 1.16113281 7.03100586 C1.17074036 8.08488998 1.1803479 9.13877411 1.19024658 10.22459412 C1.19449646 11.3763765 1.19874634 12.52815887 1.203125 13.71484375 C1.20882507 14.91315323 1.21452515 16.11146271 1.22039795 17.34608459 C1.22987469 19.90429804 1.23639247 22.46252384 1.24023438 25.02075195 C1.24974453 28.83503728 1.28065526 32.64873658 1.3125 36.46289062 C1.52309662 85.28852533 -7.68105722 135.82799696 -29 180 C-29.44891602 180.93875977 -29.89783203 181.87751953 -30.36035156 182.84472656 C-36.51216454 195.64625845 -42.82506598 208.34600601 -51 220 C-51.33 220 -51.66 220 -52 220 C-51.99032196 219.13874512 -51.98064392 218.27749023 -51.97067261 217.39013672 C-51.88730668 209.15621067 -51.85403932 200.92378736 -51.87302971 192.68943787 C-51.88112727 188.45878542 -51.87179526 184.22986992 -51.81835938 179.99951172 C-51.56625949 158.87590042 -52.69113345 142.01118271 -63 123 C-63.75112932 121.50026735 -64.49611277 119.99743388 -65.23364258 118.4909668 C-71.34719313 106.01545799 -79.39842282 95.01050296 -89 85 C-89.74636719 84.19046875 -90.49273438 83.3809375 -91.26171875 82.546875 C-100.52987037 72.80382636 -111.7240056 65.24230535 -123 58 C-120.43503507 55.43503507 -117.95341691 54.60773441 -114.58984375 53.2265625 C-113.21407064 52.65424867 -111.83859735 52.08121372 -110.46337891 51.50756836 C-109.72839172 51.20237274 -108.99340454 50.89717712 -108.23614502 50.58273315 C-89.20275292 42.65244792 -70.71973697 33.72745743 -52.24804688 24.57936096 C-43.35090438 20.17459774 -34.40532167 15.87246115 -25.45556641 11.57592773 C-21.00875305 9.43634604 -16.56607913 7.29445621 -12.16552734 5.06103516 C-11.20497688 4.57465324 -11.20497688 4.57465324 -10.22502136 4.07844543 C-8.41727475 3.16053199 -6.61224696 2.23726986 -4.80737305 1.3137207 C-2 0 -2 0 0 0 Z " fill="#FDFEFE" transform="translate(866,424)"/>
<path d="M0 0 C21.20812919 10.42204289 43.50081546 24.73438475 55 46 C44.38065013 51.542027 33.5328758 56.55822065 22.625 61.5 C21.92043671 61.82067444 21.21587341 62.14134888 20.48995972 62.47174072 C18.46654283 63.39164411 16.44076398 64.3061097 14.4140625 65.21875 C13.2276416 65.75435547 12.0412207 66.28996094 10.81884766 66.84179688 C8 68 8 68 6 68 C4.64747118 66.14709617 3.37000693 64.23929645 2.125 62.3125 C-2.85720038 54.83402473 -8.73789814 48.41657306 -15 42 C-15.53584717 41.43498779 -16.07169434 40.86997559 -16.6237793 40.2878418 C-20.92261682 35.83786607 -25.52574988 32.14507315 -30.5625 28.5625 C-31.73244507 27.72271606 -31.73244507 27.72271606 -32.92602539 26.8659668 C-38.84553872 22.67758065 -44.91670413 18.96245517 -51.27734375 15.48828125 C-54 14 -54 14 -57 12 C-46.84502048 7.62684112 -36.51798477 3.72594961 -26.17163086 -0.16674805 C-24.47845016 -0.81641929 -22.8018301 -1.50930383 -21.1328125 -2.21875 C-14.21266857 -4.75360125 -6.53779275 -2.7756358 0 0 Z " fill="#65818C" transform="translate(797,190)"/>
<path d="M0 0 C25.59654223 20.03962668 25.59654223 20.03962668 29.8125 32.6875 C29.03350342 33.00912109 28.25450684 33.33074219 27.4519043 33.66210938 C24.46786594 34.89448931 21.48404647 36.12739729 18.50039673 37.36071777 C17.17036225 37.91043316 15.8402641 38.45999455 14.51010132 39.00939941 C7.90544043 41.73776096 1.30278909 44.46922346 -5.2734375 47.265625 C-6.14830811 47.63751953 -7.02317871 48.00941406 -7.92456055 48.39257812 C-9.52633698 49.07561121 -11.12682169 49.76168358 -12.72583008 50.45117188 C-17.96977907 52.6875 -17.96977907 52.6875 -20.1875 52.6875 C-21.62234917 50.60954718 -22.94540338 48.53281616 -24.25 46.375 C-38.87025218 22.99090348 -59.11101905 10.81444879 -83.1875 -1.3125 C-80.47087967 -3.5136472 -78.0924131 -4.87827701 -74.7734375 -5.9609375 C-73.93433838 -6.24179199 -73.09523926 -6.52264648 -72.23071289 -6.81201172 C-70.90994751 -7.24537842 -70.90994751 -7.24537842 -69.5625 -7.6875 C-63.17028596 -9.84210167 -57.05610263 -12.03900842 -51.16015625 -15.3671875 C-33.94660347 -23.61605833 -13.51831921 -9.82176428 0 0 Z " fill="#65818D" transform="translate(883.1875,177.3125)"/>
<path d="M0 0 C3.5573232 2.44869026 6.91027598 5.1214263 10.24804688 7.85839844 C10.80975586 8.30940918 11.37146484 8.76041992 11.95019531 9.22509766 C20.32683176 15.97256286 28.00655833 23.02827409 34.24804688 31.85839844 C34.24804688 32.51839844 34.24804688 33.17839844 34.24804688 33.85839844 C23.36370128 39.72645114 12.40474931 45.40411794 1.18554688 50.60839844 C0.25274902 51.05038574 -0.68004883 51.49237305 -1.64111328 51.94775391 C-2.51429199 52.34623535 -3.3874707 52.7447168 -4.28710938 53.15527344 C-5.43771851 53.68652832 -5.43771851 53.68652832 -6.61157227 54.22851562 C-9.11414173 54.96498525 -10.34923139 54.83073625 -12.75195312 53.85839844 C-14.25195312 51.81152344 -14.25195312 51.81152344 -15.75195312 49.10839844 C-29.81620202 26.01784055 -53.93283028 13.70391939 -77.75195312 2.85839844 C-77.75195312 2.19839844 -77.75195312 1.53839844 -77.75195312 0.85839844 C-70.2432847 -3.00054571 -62.60730186 -6.50157865 -54.87695312 -9.89160156 C-53.76320313 -10.3853125 -52.64945313 -10.87902344 -51.50195312 -11.38769531 C-50.43203125 -11.85820312 -49.36210938 -12.32871094 -48.25976562 -12.81347656 C-47.29699707 -13.23725586 -46.33422852 -13.66103516 -45.34228516 -14.09765625 C-29.5601287 -20.45811817 -12.99204603 -8.46583155 0 0 Z " fill="#65818C" transform="translate(758.751953125,401.1416015625)"/>
<path d="M0 0 C17.7702904 6.37741565 33.59063404 17.68832277 47.1796875 30.609375 C49.89224623 33.20710314 49.89224623 33.20710314 52.9375 35.61328125 C55.94530095 38.19253008 58.3106785 40.86773773 60.7734375 43.96484375 C61.55460938 44.94066406 62.33578125 45.91648437 63.140625 46.921875 C64.01074219 48.02595703 64.01074219 48.02595703 64.8984375 49.15234375 C63.08510329 51.46938191 62.21137311 52.10812803 59.24438477 52.52734375 C55.26664762 53.27035777 52.03669702 54.85901106 48.48828125 56.71484375 C47.45339317 57.2418689 47.45339317 57.2418689 46.39759827 57.77954102 C44.20636443 58.89616595 42.02073443 60.02318245 39.8359375 61.15234375 C37.64723277 62.28078546 35.45738602 63.40668108 33.26356506 64.52514648 C31.90261213 65.21918524 30.54456148 65.91895397 29.18992615 66.62524414 C25.7790264 68.36677773 22.70496571 69.63614272 18.8984375 70.15234375 C18.16882813 69.20617187 17.43921875 68.26 16.6875 67.28515625 C4.73868946 52.04691304 -8.33633713 37.16174283 -25.1015625 27.15234375 C-25.68953613 26.79994629 -26.27750977 26.44754883 -26.88330078 26.08447266 C-33.47723423 22.15739572 -40.18049794 18.47445474 -47.1015625 15.15234375 C-44.86098363 12.91176488 -43.06388602 12.14456433 -40.15625 10.91015625 C-39.16109375 10.48347656 -38.1659375 10.05679687 -37.140625 9.6171875 C-35.57441406 8.95396484 -35.57441406 8.95396484 -33.9765625 8.27734375 C-31.93137245 7.40710505 -29.88708359 6.53474505 -27.84375 5.66015625 C-26.86092041 5.23951904 -25.87809082 4.81888184 -24.86547852 4.38549805 C-22.41697206 3.29306751 -20.05441887 2.11665001 -17.68359375 0.8671875 C-11.62188384 -2.03476523 -6.42369294 -1.75559366 0 0 Z " fill="#65818D" transform="translate(788.1015625,358.84765625)"/>
<path d="M0 0 C0.92989746 0.48210937 1.85979492 0.96421875 2.81787109 1.4609375 C3.80964355 1.95722656 4.80141602 2.45351563 5.82324219 2.96484375 C20.02992528 10.21815109 32.91957253 18.81542004 44.63037109 29.6484375 C45.23526367 30.20418457 45.84015625 30.75993164 46.46337891 31.33251953 C48.32984388 33.06470298 50.17154776 34.81927807 52.00537109 36.5859375 C52.58383789 37.12976074 53.16230469 37.67358398 53.75830078 38.23388672 C57.61688839 42.05319814 57.61688839 42.05319814 57.67480469 44.61010742 C56.06521614 47.7514012 53.28792743 48.70329596 50.20849609 50.109375 C49.55266541 50.42242584 48.89683472 50.73547668 48.22113037 51.05801392 C46.11364124 52.06001725 43.99741768 53.04181444 41.88037109 54.0234375 C40.50085079 54.67578638 39.12193716 55.32941981 37.74365234 55.984375 C34.36803966 57.58409397 30.98334448 59.16331486 27.59448242 60.73474121 C25.65467223 61.63713271 23.71925767 62.54839239 21.78466797 63.46191406 C20.61484375 64.01073242 19.44501953 64.55955078 18.23974609 65.125 C17.20301758 65.61307129 16.16628906 66.10114258 15.09814453 66.60400391 C12.63037109 67.6484375 12.63037109 67.6484375 10.63037109 67.6484375 C9.26760483 65.61039917 8.00508425 63.56688977 6.75537109 61.4609375 C1.91489732 53.63478832 -3.86176763 47.12100191 -10.36962891 40.6484375 C-11.18173828 39.83632813 -11.99384766 39.02421875 -12.83056641 38.1875 C-24.37855311 27.25335977 -38.28755844 19.78427247 -52.36962891 12.6484375 C-50.79970636 9.5085924 -48.14515889 9.22700404 -44.93212891 8.0234375 C-43.170625 7.35441406 -43.170625 7.35441406 -41.37353516 6.671875 C-38.36962891 5.6484375 -38.36962891 5.6484375 -36.36962891 5.6484375 C-36.36962891 4.9884375 -36.36962891 4.3284375 -36.36962891 3.6484375 C-34.2663722 2.66731775 -32.16199202 1.68860616 -30.05712891 0.7109375 C-28.88537109 0.16566406 -27.71361328 -0.37960937 -26.50634766 -0.94140625 C-17.39962262 -5.03546321 -8.89148243 -4.284749 0 0 Z " fill="#65818D" transform="translate(852.36962890625,335.3515625)"/>
<path d="M0 0 C11.76263431 8.16582411 26.14849896 19.07804648 33.140625 31.75830078 C23.69576683 36.3150306 14.11774826 40.56139313 4.50201416 44.74234009 C3.13791466 45.33551958 1.7742652 45.92973508 0.41107178 46.5249939 C-1.53570401 47.37436864 -3.4843297 48.21934213 -5.43359375 49.06298828 C-6.57401123 49.55782715 -7.71442871 50.05266602 -8.8894043 50.5625 C-11.23195608 51.50568279 -13.39594572 52.24732828 -15.859375 52.75830078 C-16.18808594 52.16404297 -16.51679688 51.56978516 -16.85546875 50.95751953 C-29.3546869 29.17703912 -48.3581411 16.29393387 -70.234375 5.10620117 C-70.95625 4.72455811 -71.678125 4.34291504 -72.421875 3.94970703 C-73.06253906 3.62172119 -73.70320313 3.29373535 -74.36328125 2.95581055 C-76.29692815 1.40807261 -76.49211655 0.15774362 -76.859375 -2.24169922 C-72.51929915 -4.07850036 -68.17763681 -5.91147997 -63.83447266 -7.7409668 C-62.3577952 -8.36362112 -60.88155345 -8.98730981 -59.40576172 -9.61206055 C-57.28206797 -10.51087639 -55.1568252 -11.40593717 -53.03125 -12.30029297 C-52.04508698 -12.71908974 -52.04508698 -12.71908974 -51.03900146 -13.14634705 C-32.16878503 -21.06122005 -15.61057984 -10.42481737 0 0 Z " fill="#65818C" transform="translate(465.859375,367.24169921875)"/>
<path d="M0 0 C2.75588664 1.46645934 5.44842489 3.01879482 8.125 4.625 C8.76759766 5.01010742 9.41019531 5.39521484 10.07226562 5.79199219 C19.88756073 11.79245605 28.62835999 18.89497413 37.125 26.625 C37.83398438 27.26179688 38.54296875 27.89859375 39.2734375 28.5546875 C44.30792745 33.31581148 48.17828476 38.95608175 52.125 44.625 C49.77803466 47.31681189 47.62506432 48.4114478 44.29296875 49.640625 C42.85703369 50.18203125 42.85703369 50.18203125 41.39208984 50.734375 C40.3758252 51.11078125 39.35956055 51.4871875 38.3125 51.875 C30.22530385 54.93903817 22.47962586 58.21203445 14.8671875 62.3125 C12.24046639 63.56973404 9.99365165 64.20468474 7.125 64.625 C6.49335937 63.77679688 5.86171875 62.92859375 5.2109375 62.0546875 C-11.69055492 39.73353766 -32.72315739 23.83187621 -57.875 11.625 C-54.17213052 8.43151998 -49.97696269 6.81540068 -45.5 5 C-44.7575 4.68804687 -44.015 4.37609375 -43.25 4.0546875 C-39.10140346 2.3542027 -35.32593802 1.30245429 -30.875 0.625 C-29.3361482 -0.02116206 -27.81408011 -0.70890722 -26.3125 -1.4375 C-16.95016643 -5.19080511 -8.87327992 -4.44949978 0 0 Z " fill="#65818D" transform="translate(737.875,218.375)"/>
<path d="M0 0 C1.4540625 0.77730469 1.4540625 0.77730469 2.9375 1.5703125 C17.99479732 10.00083053 31.45162541 21.38205169 43.75 33.4375 C44.26369141 33.93354736 44.77738281 34.42959473 45.30664062 34.94067383 C47.9278606 37.56682428 49.29279854 39.37776035 50 43 C45.71878384 44.88718889 41.43607812 46.77094561 37.15209961 48.65185547 C35.70216514 49.28898906 34.25260579 49.92697715 32.8034668 50.56591797 C22.94434804 54.91200642 13.03105071 59.0663619 3 63 C2.4225 61.96875 1.845 60.9375 1.25 59.875 C-13.12781645 37.01588733 -35.18067582 21.68774292 -59 10 C-55.71561455 7.27008183 -52.34548515 5.73753202 -48.40625 4.1171875 C-47.77771118 3.85745148 -47.14917236 3.59771545 -46.50158691 3.33010864 C-45.17812228 2.78456665 -43.85351088 2.24179931 -42.52783203 1.70166016 C-40.50407924 0.87666293 -38.4842524 0.04259781 -36.46484375 -0.79296875 C-22.5515379 -6.51388623 -13.66801981 -7.32757729 0 0 Z " fill="#65818C" transform="translate(682,247)"/>
<path d="M0 0 C0.88389404 0.36327393 0.88389404 0.36327393 1.78564453 0.73388672 C24.86234052 10.40308531 40.93682396 26.23654208 58 44 C57 47 57 47 54.38647461 48.42285156 C53.23671143 48.9072168 52.08694824 49.39158203 50.90234375 49.890625 C50.28026535 50.15637833 49.65818695 50.42213165 49.01725769 50.69593811 C46.99477783 51.55736384 44.96633065 52.40365454 42.9375 53.25 C41.55992022 53.8337861 40.18280331 54.41866566 38.80615234 55.00463867 C36.10140894 56.15477475 33.39466004 57.29995441 30.68603516 58.44091797 C26.1471263 60.35595848 21.63291008 62.32572621 17.125 64.3125 C15.89850028 64.85040358 14.67194633 65.38818355 13.4453125 65.92578125 C12.63835938 66.28027344 11.83140625 66.63476562 11 67 C10.48953125 66.29617188 9.9790625 65.59234375 9.453125 64.8671875 C-3.74947943 46.9359907 -17.76925447 31.11537277 -38 21 C-38.02725341 19.2709226 -38.04650987 17.54171824 -38.0625 15.8125 C-38.07410156 14.84957031 -38.08570313 13.88664062 -38.09765625 12.89453125 C-38.00154619 10.04582899 -37.83773716 7.72535164 -37 5 C-35.17749023 3.69799805 -35.17749023 3.69799805 -32.80859375 2.76171875 C-31.94556641 2.41689453 -31.08253906 2.07207031 -30.19335938 1.71679688 C-29.28392578 1.37712891 -28.37449219 1.03746094 -27.4375 0.6875 C-26.55513672 0.32849609 -25.67277344 -0.03050781 -24.76367188 -0.40039062 C-15.73149719 -3.90511473 -8.90787314 -3.68558566 0 0 Z " fill="#65818C" transform="translate(618,271)"/>
<path d="M0 0 C17.58411981 10.66872766 32.67719164 25.17294462 46.234375 40.49609375 C44.59573322 43.7733773 41.04275586 44.47888145 37.796875 45.83203125 C37.04277344 46.15265533 36.28867187 46.47327942 35.51171875 46.80361938 C33.08853262 47.83236761 30.6616078 48.8519348 28.234375 49.87109375 C25.8412091 50.88316028 23.44883156 51.89706939 21.05664062 52.91143799 C19.51847027 53.56259731 17.9794165 54.21167406 16.43945312 54.85858154 C12.51867341 56.50838134 8.64551273 58.22155589 4.796875 60.03515625 C1.234375 61.49609375 1.234375 61.49609375 -1.765625 60.49609375 C-3.09765625 58.51953125 -3.09765625 58.51953125 -4.578125 55.87109375 C-17.9605083 34.24044904 -39.7677538 20.13424605 -61.765625 8.49609375 C-61.765625 7.83609375 -61.765625 7.17609375 -61.765625 6.49609375 C-57.4781589 4.61179827 -53.17767088 2.76254626 -48.86279297 0.94189453 C-47.4025406 0.32038083 -45.9459883 -0.30991291 -44.49365234 -0.94970703 C-28.4904126 -7.98494769 -15.8071357 -8.5956882 0 0 Z " fill="#66828D" transform="translate(922.765625,313.50390625)"/>
<path d="M0 0 C7.46567747 6.60007654 14.00277726 13.40816825 19.94482422 21.42993164 C17.14409024 24.23066562 13.7332858 25.44875486 10.15576172 27.01977539 C9.37850739 27.36496719 8.60125305 27.710159 7.80044556 28.06581116 C6.15211602 28.79672253 4.50278401 29.52537669 2.85253906 30.25195312 C0.34838594 31.35485226 -2.15245007 32.46499796 -4.65283203 33.57641602 C-6.2581081 34.28713784 -7.86357116 34.99743748 -9.46923828 35.70727539 C-10.20912994 36.03549789 -10.94902161 36.3637204 -11.71133423 36.70188904 C-16.43855213 38.77939815 -21.20581264 40.65543255 -26.05517578 42.42993164 C-26.52826172 41.75188477 -27.00134766 41.07383789 -27.48876953 40.37524414 C-32.27879671 33.63372441 -37.39035146 27.44944085 -43.05517578 21.42993164 C-43.62107422 20.78797852 -44.18697266 20.14602539 -44.77001953 19.48461914 C-57.25631727 5.95071819 -75.16958011 -4.58292532 -92.05517578 -11.57006836 C-83.80414763 -18.12139405 -74.54594771 -19.37596249 -64.30517578 -20.32006836 C-63.13212891 -20.44510742 -61.95908203 -20.57014648 -60.75048828 -20.69897461 C-34.73405851 -23.30061759 -19.57500242 -17.0255397 0 0 Z " fill="#66828E" transform="translate(537.05517578125,350.570068359375)"/>
<path d="M0 0 C12.80979485 6.40489743 24.24009404 14.21508489 34.71875 23.98828125 C36.85623544 25.98078942 39.05028736 27.87839957 41.27734375 29.76953125 C44.57111964 32.64239866 47.35347577 35.57300553 49.96484375 39.08203125 C49.96484375 39.74203125 49.96484375 40.40203125 49.96484375 41.08203125 C47.00086258 42.33016602 44.01729945 43.52262587 41.02734375 44.70703125 C40.19654297 45.05765625 39.36574219 45.40828125 38.50976562 45.76953125 C32.27237729 48.1965306 28.2733196 48.18066911 21.96484375 46.08203125 C13.28692815 43.54098414 5.86056882 41.94536639 -3.21899414 41.95727539 C-16.57928055 41.95625326 -16.57928055 41.95625326 -21.30078125 39.12109375 C-23.66015625 36.58203125 -23.66015625 36.58203125 -25.79296875 33.83203125 C-28.34041483 30.70763745 -31.14762457 28.67972593 -34.53515625 26.58203125 C-35.11064209 26.22367187 -35.68612793 25.8653125 -36.27905273 25.49609375 C-49.17687471 17.28415372 -49.17687471 17.28415372 -63.03515625 11.08203125 C-63.03515625 10.42203125 -63.03515625 9.76203125 -63.03515625 9.08203125 C-62.49737549 8.84081543 -61.95959473 8.59959961 -61.40551758 8.35107422 C-59.7982041 7.62981523 -58.19121779 6.90782693 -56.58447266 6.18530273 C-54.74835804 5.36126236 -52.91076915 4.54049965 -51.07177734 3.72290039 C-47.10043346 1.95036586 -43.14839139 0.18563305 -39.3046875 -1.8515625 C-25.59006883 -8.95590534 -13.41468385 -6.47334662 0 0 Z " fill="#66828D" transform="translate(684.03515625,418.91796875)"/>
<path d="M0 0 C0.81863525 0.27674561 1.63727051 0.55349121 2.48071289 0.83862305 C19.45718587 6.54175894 36.29668401 11.99996459 54 15 C54.74378906 15.12842285 55.48757813 15.2568457 56.25390625 15.38916016 C93.96005629 21.5052893 136.16403321 16.99437811 171.07202148 1.63671875 C173 1 173 1 175 2 C157.05150506 20.68498333 140.01005096 34.31660323 114 39 C112.96875 39.19335938 111.9375 39.38671875 110.875 39.5859375 C77.913057 43.1080806 43.53771102 38.03910734 16.875 17.1875 C15.2333684 15.81126551 13.60969729 14.41345333 12 13 C11.47535156 12.54093262 10.95070313 12.08186523 10.41015625 11.60888672 C8.72244824 10.12434679 7.04629393 8.62798515 5.375 7.125 C4.84116699 6.64828857 4.30733398 6.17157715 3.75732422 5.68041992 C2.46490234 4.49580619 1.22697651 3.25227499 0 2 C0 1.34 0 0.68 0 0 Z " fill="#053048" transform="translate(363,604)"/>
<path d="M0 0 C10.87699844 3.00101954 19.26559286 12.1869043 27.12890625 19.86328125 C27.6511377 20.37036621 28.17336914 20.87745117 28.71142578 21.39990234 C39.2353976 31.65138737 39.2353976 31.65138737 42.12890625 35.86328125 C41.12890625 38.86328125 41.12890625 38.86328125 38.51538086 40.28613281 C37.36561768 40.77049805 36.21585449 41.25486328 35.03125 41.75390625 C34.09833633 42.15260422 34.09833633 42.15260422 33.14657593 42.55935669 C31.12407576 43.42104165 29.09556253 44.2674043 27.06640625 45.11328125 C25.68668005 45.69645212 24.30736615 46.28059941 22.9284668 46.86572266 C20.88186705 47.73382269 18.83491362 48.60096566 16.786026 49.46365356 C13.06314066 51.03244088 9.36128371 52.63665601 5.68359375 54.30859375 C4.9450415 54.64342773 4.20648926 54.97826172 3.44555664 55.32324219 C1.5840105 56.17317213 -0.27453072 57.02967513 -2.1328125 57.88671875 C-4.87109375 58.86328125 -4.87109375 58.86328125 -7.87109375 57.86328125 C-9.27523516 55.97646623 -10.59582313 54.02698186 -11.87109375 52.05078125 C-20.24715943 39.58899763 -30.00172227 30.78580752 -42.13574219 22.125 C-44.4433835 20.44718764 -46.66366059 18.67013774 -48.87109375 16.86328125 C-47.2627521 16.45632535 -45.65430188 16.04979528 -44.04541016 15.64501953 C-42.61884752 15.2858226 -41.19275034 14.92477275 -39.76708984 14.56201172 C-35.98220145 13.60734672 -32.198266 12.70621926 -28.375 11.91796875 C-15.03084313 9.24819727 -15.03084313 9.24819727 -4.48828125 1.1171875 C-2.87109375 -0.13671875 -2.87109375 -0.13671875 0 0 Z " fill="#65818C" transform="translate(573.87109375,306.13671875)"/>
<path d="M0 0 C5.88366191 1.37207926 10.45597229 3.7476448 15.5625 6.9375 C16.35116455 7.42766602 17.1398291 7.91783203 17.95239258 8.42285156 C33.07777658 17.98345219 48.19478155 29.85360874 58 45 C48.60252634 49.79039692 39.11449908 54.31698868 29.50390625 58.66210938 C27.36821235 59.62807001 25.23477849 60.59889378 23.1015625 61.5703125 C21.70065123 62.2060166 20.29961382 62.84144281 18.8984375 63.4765625 C17.97446671 63.89707382 17.97446671 63.89707382 17.03182983 64.32608032 C11.07576869 67.01380818 5.03876675 69.50486829 -1 72 C-1.02324295 63.79360563 -1.04097576 55.58722519 -1.05181217 47.38080597 C-1.05701495 43.56961397 -1.06406494 39.7584446 -1.07543945 35.94726562 C-1.08636135 32.26439697 -1.09229643 28.58154999 -1.09487724 24.89866638 C-1.09671481 23.49856729 -1.1003029 22.09846929 -1.10573006 20.69837952 C-1.13171497 13.7124923 -1.10888916 6.90657609 0 0 Z " fill="#64808B" transform="translate(383,382)"/>
<path d="M0 0 C1.75343913 1.30886148 3.45676718 2.68478753 5.140625 4.08203125 C3.65763273 12.97388703 1.79283513 21.77119773 -0.30615234 30.53588867 C-0.67622876 32.11369459 -1.03064773 33.69525176 -1.36962891 35.2800293 C-4.19047996 48.40929244 -4.19047996 48.40929244 -8.19140625 52.41943359 C-10.71227293 53.97891277 -13.06869638 55.09700404 -15.859375 56.08203125 C-17.65375 56.76265625 -17.65375 56.76265625 -19.484375 57.45703125 C-20.66 57.76640625 -20.66 57.76640625 -21.859375 58.08203125 C-22.01792969 56.80070313 -22.17648438 55.519375 -22.33984375 54.19921875 C-25.15496885 32.79305728 -31.95315753 11.1203035 -49.546875 -2.85546875 C-52.54985069 -5.05834365 -55.58969031 -7.12491585 -58.859375 -8.91796875 C-41.20323757 -23.54265799 -16.09813283 -10.79806451 0 0 Z " fill="#64818C" transform="translate(170.859375,494.91796875)"/>
<path d="M0 0 C15.74001886 10.64765982 24.34364013 28.96577974 28.64257812 46.92919922 C29.2789805 50.61633375 29.20903466 54.27015383 29.125 58 C29.11597656 58.77472656 29.10695312 59.54945313 29.09765625 60.34765625 C29.07439388 62.23190843 29.0385364 64.11599832 29 66 C23.98467861 68.91800517 19.94180309 71.06103627 14 70 C1.0277322 63.29110999 -7.88774832 46.79110331 -12.4375 33.4375 C-14.41005875 27.05985491 -15.24867424 21.14932875 -15.375 14.5 C-15.41238281 13.75363281 -15.44976562 13.00726563 -15.48828125 12.23828125 C-15.55574343 8.00315537 -15.38667735 6.48111341 -12.6328125 3.0546875 C-8.20662902 -0.39957439 -5.45668564 -1.54139005 0 0 Z " fill="#64808B" transform="translate(97,498)"/>
<path d="M0 0 C2.19282937 1.5918959 4.01086015 3.07551039 5.9375 4.9375 C6.46110107 5.43548096 6.98470215 5.93346191 7.52416992 6.4465332 C20.5725859 19.16777948 27.89280895 36.1709547 28.25 54.3125 C28.26952425 58.67128966 28.15526668 62.14643773 26 66 C23.875 67.3125 23.875 67.3125 22 68 C21.55011719 67.27296875 21.10023438 66.5459375 20.63671875 65.796875 C15.45725605 57.70072088 9.64793653 50.89937135 3 44 C2.40574219 43.34257812 1.81148437 42.68515625 1.19921875 42.0078125 C-9.9382272 30.01363994 -25.63263277 23.23063579 -40 16 C-37.09589215 12.88113642 -33.84386369 11.34205343 -30 9.625 C-29.33371582 9.32118408 -28.66743164 9.01736816 -27.98095703 8.7043457 C-26.6295539 8.08893701 -25.27685693 7.47636122 -23.92285156 6.86669922 C-22.19249012 6.08676231 -20.46701612 5.29600381 -18.7421875 4.50390625 C-16.16717431 3.32164542 -13.59292618 2.14242787 -11 1 C-10.19820312 0.60425781 -9.39640625 0.20851563 -8.5703125 -0.19921875 C-5.20505464 -1.24766535 -3.37295582 -1.02954845 0 0 Z " fill="#66828D" transform="translate(956,279)"/>
<path d="M0 0 C4.96706494 -0.76489023 9.19910649 -1.05496129 13.640625 1.546875 C26.81993285 12.90263082 37.71417939 31.62353035 40 49 C40.28661158 54.33625509 40.18289967 59.66203913 40 65 C35.17611728 67.09513645 31.21737405 67.98589175 26 67 C22.90629176 65.41939633 20.51144254 63.38292523 18 61 C17.48824219 60.53980469 16.97648437 60.07960938 16.44921875 59.60546875 C4.33429465 47.22930639 -1.21209419 26.92409991 -1.125 10.1875 C-1.12886719 9.42501953 -1.13273438 8.66253906 -1.13671875 7.87695312 C-1.12677462 2.25354925 -1.12677462 2.25354925 0 0 Z " fill="#64818C" transform="translate(157,627)"/>
<path d="M0 0 C14.03520014 7.95328008 22.95841571 21.19167009 28.09765625 36.20703125 C30.17814123 43.74516055 31.381608 51.0624172 28.75 58.5625 C26.78118972 61.30477146 26.1591062 61.41908998 23 62 C22.46632813 61.18917969 21.93265625 60.37835938 21.3828125 59.54296875 C5.69896479 36.06537282 -15.13865471 24.08105998 -40 12 C-38.16050486 8.32100973 -33.33001384 7.66002326 -29.625 6.3125 C-28.31015625 5.81266602 -28.31015625 5.81266602 -26.96875 5.30273438 C-26.12570312 4.99271484 -25.28265625 4.68269531 -24.4140625 4.36328125 C-23.6401416 4.07751221 -22.8662207 3.79174316 -22.06884766 3.49731445 C-20 3 -20 3 -17 4 C-13.91500433 2.83983069 -10.98865838 1.43575884 -8.0078125 0.03125 C-4.64767494 -1.12079716 -3.31235241 -1.17466811 0 0 Z " fill="#66838E" transform="translate(899,137)"/>
<path d="M0 0 C2.93617748 1.94722633 5.8366175 3.90897313 8.68139648 5.98876953 C8.68139648 6.31876953 8.68139648 6.64876953 8.68139648 6.98876953 C7.60245117 7.14732422 6.52350586 7.30587891 5.41186523 7.46923828 C-2.81160699 8.72882268 -10.89657138 10.23946559 -18.94360352 12.36376953 C-20.1245459 12.67109009 -20.1245459 12.67109009 -21.3293457 12.98461914 C-25.21531188 14.02982386 -28.9739391 15.19795214 -32.72094727 16.66845703 C-42.74471102 20.53491519 -42.74471102 20.53491519 -46.79516602 19.12939453 C-49.00610352 17.48876953 -49.00610352 17.48876953 -51.27172852 15.44580078 C-55.57480368 11.97575683 -60.33967964 9.66856878 -65.25610352 7.17626953 C-67.09915507 6.23343817 -68.94163793 5.28949399 -70.78344727 4.34423828 C-71.58387451 3.93842529 -72.38430176 3.5326123 -73.20898438 3.11450195 C-75.31860352 1.98876953 -75.31860352 1.98876953 -78.31860352 -0.01123047 C-77.29089844 -0.4342041 -77.29089844 -0.4342041 -76.24243164 -0.86572266 C-73.09987815 -2.16115068 -69.95923679 -3.46115437 -66.81860352 -4.76123047 C-65.74094727 -5.20466797 -64.66329102 -5.64810547 -63.55297852 -6.10498047 C-58.89258157 -8.03734018 -54.27796157 -9.97323186 -49.78735352 -12.27685547 C-33.22093641 -20.56006402 -13.95245443 -9.09006373 0 0 Z " fill="#66828D" transform="translate(638.318603515625,456.01123046875)"/>
<path d="M0 0 C0.73863281 0.34417969 1.47726562 0.68835938 2.23828125 1.04296875 C5.6916308 2.7120877 8.30619493 4.15567253 10.9375 7 C3.29210225 11.97321989 -4.74540415 16.04299608 -12.86328125 20.18359375 C-13.92933594 20.73144531 -14.99539063 21.27929688 -16.09375 21.84375 C-17.12113281 22.37097656 -18.14851562 22.89820313 -19.20703125 23.44140625 C-21.77450201 24.84280274 -24.12938457 26.36842008 -26.53125 28.03125 C-29.69881446 30.06939767 -29.69881446 30.06939767 -32.78515625 29.48046875 C-33.91244141 28.74763672 -33.91244141 28.74763672 -35.0625 28 C-35.78308594 27.58363281 -36.50367188 27.16726563 -37.24609375 26.73828125 C-37.98988281 26.26777344 -38.73367188 25.79726563 -39.5 25.3125 C-48.8803646 19.5948113 -58.76262653 14.8209208 -69.0625 11 C-65.99082866 8.5196151 -62.8794077 6.84378037 -59.30078125 5.1875 C-58.18123047 4.66929687 -57.06167969 4.15109375 -55.90820312 3.6171875 C-54.74224609 3.08351563 -53.57628906 2.54984375 -52.375 2 C-50.65506836 1.19949219 -50.65506836 1.19949219 -48.90039062 0.3828125 C-30.4930144 -8.08858446 -18.6870734 -8.71007658 0 0 Z " fill="#66828D" transform="translate(565.0625,476)"/>
<path d="M0 0 C13.77342854 6.79434404 27.38841095 13.88810754 41 21 C37.92264662 24.15840746 34.90869788 25.93905021 31 28 C30.34 28 29.68 28 29 28 C29 28.66 29 29.32 29 30 C25.87797994 31.50626117 22.75191601 33.00393243 19.625 34.5 C18.73554688 34.92925781 17.84609375 35.35851562 16.9296875 35.80078125 C16.07890625 36.20683594 15.228125 36.61289062 14.3515625 37.03125 C13.17327881 37.59682617 13.17327881 37.59682617 11.97119141 38.17382812 C10 39 10 39 8 39 C7.96132812 37.27716797 7.96132812 37.27716797 7.921875 35.51953125 C7.56445708 24.56029307 6.39036349 14.71583964 1.3671875 4.765625 C0 2 0 2 0 0 Z " fill="#65818C" transform="translate(209,643)"/>
<path d="M0 0 C-0.76903904 4.75664886 -2.36259613 9.15330096 -3.9375 13.6875 C-5.94214691 19.53320623 -7.69662038 25.2086062 -8.578125 31.34765625 C-8.71734375 31.89292969 -8.8565625 32.43820312 -9 33 C-9.99 33.495 -9.99 33.495 -11 34 C-13.24316406 33.05957031 -13.24316406 33.05957031 -16.015625 31.578125 C-17.01980469 31.04703125 -18.02398437 30.5159375 -19.05859375 29.96875 C-20.63833984 29.11796875 -20.63833984 29.11796875 -22.25 28.25 C-24.31754476 27.15073396 -26.38524852 26.05176691 -28.453125 24.953125 C-29.41927734 24.43685547 -30.38542969 23.92058594 -31.38085938 23.38867188 C-34.23205718 21.87696297 -37.10185054 20.41909387 -40 19 C-38.3146263 15.6292526 -34.46235727 14.85511394 -31.125 13.4375 C-23.33474941 10.06446705 -15.65511657 6.50549424 -8.02001953 2.79467773 C-7.26060059 2.42930908 -6.50118164 2.06394043 -5.71875 1.6875 C-5.04779297 1.36136719 -4.37683594 1.03523438 -3.68554688 0.69921875 C-2 0 -2 0 0 0 Z " fill="#66828C" transform="translate(192,449)"/>
<path d="M0 0 C1.21816406 0.2784375 2.43632812 0.556875 3.69140625 0.84375 C4.92761719 1.1221875 6.16382813 1.400625 7.4375 1.6875 C8.83162109 2.01234375 8.83162109 2.01234375 10.25390625 2.34375 C7.99508792 4.60256833 5.97650566 5.56656265 3.09765625 6.9453125 C2.07542969 7.43515625 1.05320312 7.925 0 8.4296875 C-1.07121094 8.93757813 -2.14242188 9.44546875 -3.24609375 9.96875 C-4.31730469 10.484375 -5.38851563 11 -6.4921875 11.53125 C-14.49036872 15.34375 -14.49036872 15.34375 -16.74609375 15.34375 C-16.32373693 13.04924415 -15.88272458 10.75816562 -15.43359375 8.46875 C-15.18996094 7.19257813 -14.94632812 5.91640625 -14.6953125 4.6015625 C-12.58408591 -2.64437569 -6.17878732 -1.0824153 0 0 Z " fill="#F3F6F7" transform="translate(411.74609375,324.65625)"/>
<path d="M0 0 C0.43570312 0.37511719 0.87140625 0.75023437 1.3203125 1.13671875 C5.18607599 4.45859777 9.07657648 7.74642927 13 11 C12.34 11.66 11.68 12.32 11 13 C11 12.34 11 11.68 11 11 C10.01 11.495 10.01 11.495 9 12 C9.90458488 16.82445268 12.50385763 20.8550371 14.8203125 25.125 C16.09777019 28.23827438 15.96290527 28.94492694 15 32 C12.85867666 27.76671007 10.7225723 23.5308439 8.59130859 19.29248047 C7.86520743 17.85034935 7.13767335 16.40893878 6.40869141 14.96826172 C5.36245182 12.89998128 4.32135554 10.829183 3.28125 8.7578125 C2.95314331 8.11192169 2.62503662 7.46603088 2.2869873 6.80056763 C0 2.22774341 0 2.22774341 0 0 Z " fill="#152A4B" transform="translate(501,212)"/>
<path d="M0 0 C0.99 0 1.98 0 3 0 C3.66 0.99 4.32 1.98 5 3 C7.58380177 3.25030977 7.58380177 3.25030977 10 3 C6.7665725 5.80178062 3.89551231 6.74124175 -0.25 7.6875 C-1.32765625 7.93886719 -2.4053125 8.19023438 -3.515625 8.44921875 C-4.33546875 8.63097656 -5.1553125 8.81273437 -6 9 C-4.36275636 5.59453323 -2.56852213 2.80202414 0 0 Z " fill="#0A294A" transform="translate(312,561)"/>
<path d="M0 0 C2.41316065 3.21754753 3.8515438 5.26751735 5 9 C4 12 4 12 2 14 C1.53837573 16.43252661 1.53837573 16.43252661 1.375 19.125 C1.26285156 20.49011719 1.26285156 20.49011719 1.1484375 21.8828125 C1.09945312 22.58148437 1.05046875 23.28015625 1 24 C0.67 24 0.34 24 0 24 C0 16.08 0 8.16 0 0 Z " fill="#071F4E" transform="translate(586,649)"/>
<path d="M0 0 C4.95 1.65 9.9 3.3 15 5 C15 5.33 15 5.66 15 6 C13.35 6 11.7 6 10 6 C9.67 7.32 9.34 8.64 9 10 C7.86800647 9.0919838 6.74467637 8.17316174 5.625 7.25 C4.99851562 6.73953125 4.37203125 6.2290625 3.7265625 5.703125 C2 4 2 4 0 0 Z " fill="#152F48" transform="translate(363,604)"/>
<path d="M0 0 C-3.3 3.3 -6.6 6.6 -10 10 C-10 7 -10 7 -8 4 C-10.97 4.66 -13.94 5.32 -17 6 C-14.42166561 3.42166561 -11.89674219 2.6238529 -8.5 1.3125 C-7.3346875 0.85488281 -6.169375 0.39726563 -4.96875 -0.07421875 C-2 -1 -2 -1 0 0 Z " fill="#10244B" transform="translate(538,606)"/>
<path d="M0 0 C0.66 0 1.32 0 2 0 C3.5078125 2.1875 3.5078125 2.1875 5.125 5 C5.66382813 5.928125 6.20265625 6.85625 6.7578125 7.8125 C7.37269531 8.8953125 7.37269531 8.8953125 8 10 C7.34 10 6.68 10 6 10 C5.67 10.99 5.34 11.98 5 13 C4.34 13 3.68 13 3 13 C2.01 8.71 1.02 4.42 0 0 Z " fill="#132848" transform="translate(473,231)"/>
<path d="M0 0 C1.95917659 0.0868748 3.91741871 0.19504512 5.875 0.3125 C7.51082031 0.39951172 7.51082031 0.39951172 9.1796875 0.48828125 C10.11039063 0.65714844 11.04109375 0.82601562 12 1 C12.66 1.99 13.32 2.98 14 4 C7.07 3.505 7.07 3.505 0 3 C0 2.01 0 1.02 0 0 Z " fill="#153344" transform="translate(550,81)"/>
<path d="M0 0 C0.66 0.33 1.32 0.66 2 1 C-2.75 4 -2.75 4 -5 4 C-5 4.66 -5 5.32 -5 6 C-8 8 -8 8 -12 8 C-11 5 -11 5 -8.56640625 3.578125 C-7.57511719 3.13984375 -6.58382812 2.7015625 -5.5625 2.25 C-4.57378906 1.80140625 -3.58507812 1.3528125 -2.56640625 0.890625 C-1.29603516 0.44976562 -1.29603516 0.44976562 0 0 Z " fill="#0B2334" transform="translate(109,463)"/>
<path d="M0 0 C0.66 0.33 1.32 0.66 2 1 C1.01 1.33 0.02 1.66 -1 2 C-1.33 2.99 -1.66 3.98 -2 5 C-2.70125 5.103125 -3.4025 5.20625 -4.125 5.3125 C-7.14102327 5.91491667 -7.14102327 5.91491667 -10.1875 7.625 C-11.115625 8.07875 -12.04375 8.5325 -13 9 C-13.66 8.67 -14.32 8.34 -15 8 C-12.54665445 6.63603538 -10.08808766 5.28365831 -7.625 3.9375 C-6.92632812 3.54755859 -6.22765625 3.15761719 -5.5078125 2.75585938 C-3.70389816 1.77584822 -1.85416518 0.88124929 0 0 Z " fill="#061628" transform="translate(411,332)"/>
<path d="M0 0 C1.46015291 0.28241641 2.91809793 0.57626614 4.375 0.875 C5.18710937 1.03742188 5.99921875 1.19984375 6.8359375 1.3671875 C9 2 9 2 11 4 C8.69 3.67 6.38 3.34 4 3 C4.33 4.98 4.66 6.96 5 9 C1.96130589 7.48065294 1.35589694 5.01995228 0 2 C0 1.34 0 0.68 0 0 Z " fill="#0A224D" transform="translate(380,289)"/>
<path d="M0 0 C0.99 0.33 1.98 0.66 3 1 C2.67 1.515625 2.34 2.03125 2 2.5625 C0.67989123 5.78026512 0.86757895 8.5570528 1 12 C-1.39763185 9.60236815 -1.34280586 8.66726502 -1.625 5.375 C-1.69976562 4.55773437 -1.77453125 3.74046875 -1.8515625 2.8984375 C-1.90054687 2.27195313 -1.94953125 1.64546875 -2 1 C-1.34 0.67 -0.68 0.34 0 0 Z " fill="#05244C" transform="translate(479,241)"/>
<path d="M0 0 C1.8143773 0.01164929 3.62858298 0.10886213 5.4375 0.25 C6.92056641 0.35054687 6.92056641 0.35054687 8.43359375 0.453125 C11 1 11 1 13 4 C11.41590006 3.88512252 9.83271037 3.75765492 8.25 3.625 C7.36828125 3.55539062 6.4865625 3.48578125 5.578125 3.4140625 C3.00933618 3.00149945 1.24158985 2.28839043 -1 1 C-0.67 0.67 -0.34 0.34 0 0 Z " fill="#17294A" transform="translate(727,712)"/>
<path d="M0 0 C0.99 0.33 1.98 0.66 3 1 C2.67 1.66 2.34 2.32 2 3 C2.928125 3.28875 3.85625 3.5775 4.8125 3.875 C8 5 8 5 11 7 C10.67 7.66 10.34 8.32 10 9 C6.04 7.02 2.08 5.04 -2 3 C-2 2.34 -2 1.68 -2 1 C-1.34 0.67 -0.68 0.34 0 0 Z " fill="#718A94" transform="translate(623,427)"/>
<path d="M0 0 C0 4.25866406 -1.21704663 6.17099055 -4.125 9.25 C-4.74375 9.8275 -5.3625 10.405 -6 11 C-6.66 10.67 -7.32 10.34 -8 10 C-5.36 6.7 -2.72 3.4 0 0 Z " fill="#EB9C2C" transform="translate(285,351)"/>
<path d="M0 0 C3.3 0 6.6 0 10 0 C10 0.99 10 1.98 10 3 C6.37 3 2.74 3 -1 3 C-0.67 2.01 -0.34 1.02 0 0 Z " fill="#5C7B86" transform="translate(839,160)"/>
<path d="M0 0 C5.00918744 1.47329042 7.51807722 4.27515238 11 8 C10.67 8.66 10.34 9.32 10 10 C8.33037631 8.52417192 6.6643694 7.04425109 5 5.5625 C4.071875 4.73878906 3.14375 3.91507812 2.1875 3.06640625 C1.465625 2.38449219 0.74375 1.70257813 0 1 C0 0.67 0 0.34 0 0 Z " fill="#12294A" transform="translate(744,506)"/>
<path d="M0 0 C2.69082872 0.17635452 5.32851446 0.61835921 8 1 C8 1.66 8 2.32 8 3 C4.625 3.125 4.625 3.125 1 3 C0.34 2.34 -0.32 1.68 -1 1 C-0.67 0.67 -0.34 0.34 0 0 Z " fill="#0E2939" transform="translate(427,824)"/>
<path d="M0 0 C0 0.66 0 1.32 0 2 C-3.02525676 4.40240978 -4.4125871 5.05541631 -8.3125 4.6875 C-9.199375 4.460625 -10.08625 4.23375 -11 4 C-7.61125486 1.74083657 -4.15175481 0 0 0 Z " fill="#172D4A" transform="translate(571,693)"/>
<path d="M0 0 C-0.33 0.99 -0.66 1.98 -1 3 C-7.625 3.25 -7.625 3.25 -11 1 C-7.32589215 -0.17571451 -3.83070817 -0.07366746 0 0 Z " fill="#D48E31" transform="translate(472,619)"/>
<path d="M0 0 C0.33 0 0.66 0 1 0 C1 3.3 1 6.6 1 10 C0.01 10 -0.98 10 -2 10 C-2.17942163 6.05272412 -2.09350689 3.4019487 0 0 Z " fill="#153A4E" transform="translate(132,423)"/>
<path d="M0 0 C1.65 1.65 3.3 3.3 5 5 C2.1875 6.5625 2.1875 6.5625 -1 8 C-1.99 7.67 -2.98 7.34 -4 7 C-2.02 6.34 -0.04 5.68 2 5 C1.34 3.35 0.68 1.7 0 0 Z " fill="#6F8A93" transform="translate(964,350)"/>
<path d="M0 0 C0.66 0.33 1.32 0.66 2 1 C-0.83430453 4.2542015 -2.68607774 5.5206753 -7 6 C-2.25 1.125 -2.25 1.125 0 0 Z " fill="#EC9F2A" transform="translate(372,526)"/>
<path d="M0 0 C0.66 0.99 1.32 1.98 2 3 C1.01 3.33 0.02 3.66 -1 4 C-1.73323796 6.01508358 -1.73323796 6.01508358 -2 8 C-2.99 7.67 -3.98 7.34 -5 7 C-3.35 4.69 -1.7 2.38 0 0 Z " fill="#071E31" transform="translate(311,277)"/>
<path d="M0 0 C2.64 0.99 5.28 1.98 8 3 C7.01 3.33 6.02 3.66 5 4 C4.67 4.66 4.34 5.32 4 6 C2.62437146 4.71034824 1.29233607 3.37310707 0 2 C0 1.34 0 0.68 0 0 Z " fill="#1D2A4D" transform="translate(363,604)"/>
<path d="M0 0 C-2.62438979 1.74959319 -3.96547627 2.62068453 -7 3 C-7.99 2.34 -8.98 1.68 -10 1 C-3.71428571 -1.42857143 -3.71428571 -1.42857143 0 0 Z " fill="#EE9F2A" transform="translate(425,506)"/>
<path d="M0 0 C0.66 0 1.32 0 2 0 C2.36923077 5.41538462 2.36923077 5.41538462 0.5 8.375 C0.005 8.91125 -0.49 9.4475 -1 10 C-1.02689216 8.52093108 -1.04634621 7.04172517 -1.0625 5.5625 C-1.07410156 4.73878906 -1.08570313 3.91507812 -1.09765625 3.06640625 C-1 1 -1 1 0 0 Z " fill="#133B4D" transform="translate(152,432)"/>
<path d="M0 0 C-3.33333333 1.66666667 -6.66666667 3.33333333 -10 5 C-10 4.01 -10 3.02 -10 2 C-4.10714286 -1.34821429 -4.10714286 -1.34821429 0 0 Z " fill="#748E97" transform="translate(649,418)"/>
<path d="M0 0 C0 3.15081975 -0.27898465 4.41847698 -2 7 C-3.32 7.33 -4.64 7.66 -6 8 C-4.02 5.36 -2.04 2.72 0 0 Z " fill="#071D2E" transform="translate(215,217)"/>
<path d="M0 0 C0.33 0.99 0.66 1.98 1 3 C-2.26760563 8.63380282 -2.26760563 8.63380282 -5 10 C-3.66511872 6.40608886 -2.03977277 3.24509304 0 0 Z " fill="#0F2A4B" transform="translate(482,301)"/>
<path d="M0 0 C0.66 0.33 1.32 0.66 2 1 C1.34 2.32 0.68 3.64 0 5 C-0.66 4.34 -1.32 3.68 -2 3 C-1.34 2.01 -0.68 1.02 0 0 Z M-2 4 C-2 4.66 -2 5.32 -2 6 C-3.32 5.67 -4.64 5.34 -6 5 C-4 4 -4 4 -2 4 Z " fill="#152F48" transform="translate(525,295)"/>
<path d="M0 0 C0.66 0.99 1.32 1.98 2 3 C0.68 4.32 -0.64 5.64 -2 7 C-2.66 6.67 -3.32 6.34 -4 6 C-2.68 4.02 -1.36 2.04 0 0 Z " fill="#EF9D2B" transform="translate(344,266)"/>
</svg>
